<svg xmlns="http://www.w3.org/2000/svg" width="27.075" height="27.235" viewBox="0 0 27.075 27.235"><defs><style>.a{fill:#272727;}</style></defs><g transform="translate(-1.494)"><path class="a" d="M195.008,90.084V86.647a.923.923,0,0,1,.922-.922h.01a3.922,3.922,0,0,0,3.73-4.081V77.318H185.977v4.326a3.922,3.922,0,0,0,3.73,4.081.923.923,0,0,1,.922.922v3.437Z" transform="translate(-174.601 -73.176)"/><path class="a" d="M185.978,0h13.693V2.535H185.978Z" transform="translate(-174.602)"/><path class="a" d="M23.335,345.662l-3.791,3.506-1.091-1.18,2.538-2.346H17.874l-3.814,3.526-1.091-1.18,2.538-2.346H12.39l-3.814,3.526-1.091-1.18,2.538-2.346H7.212a5.724,5.724,0,0,0-5.718,5.718v.257a2.748,2.748,0,0,0,2.745,2.745H25.824a2.748,2.748,0,0,0,2.745-2.745v-.257a5.725,5.725,0,0,0-5.234-5.7Z" transform="translate(0 -327.126)"/></g></svg>