<svg xmlns="http://www.w3.org/2000/svg" width="59.098" height="54.173" viewBox="0 0 59.098 54.173"><defs><style>.a{fill:#c6baa0;}</style></defs><g transform="translate(0 -21.333)"><g transform="translate(0 21.333)"><path class="a" d="M56.215,54.835,43.87,48.663,35.645,25.628a6.473,6.473,0,0,0-12.192,0L15.228,48.663,2.883,54.835a5.216,5.216,0,0,0,0,9.33L22,73.724a16.879,16.879,0,0,0,15.1,0l19.117-9.559a5.216,5.216,0,0,0,0-9.33ZM22.732,34.972a18.624,18.624,0,0,0,6.817,1.135,18.625,18.625,0,0,0,6.817-1.135l2.21,6.183c-1.789,1.456-5.146,2.34-9.027,2.34s-7.238-.884-9.027-2.34Zm6.817,28.221c-5.92,0-14.476-2.317-14.767-5.964l1.594-4.461c2.994,1.945,7.664,3.037,13.173,3.037s10.179-1.092,13.173-3.037l1.594,4.461C44.025,60.877,35.469,63.194,29.549,63.194Z" transform="translate(0 -21.333)"/></g></g></svg>