<svg xmlns="http://www.w3.org/2000/svg" width="50" height="50" viewBox="0 0 50 50"><defs><style>.a{fill:#2d9195;}</style></defs><path class="a" d="M291.487,508.668q-.315.051-.632.095Q291.172,508.719,291.487,508.668Zm0,0" transform="translate(-262.454 -458.996)"/><path class="a" d="M299.641,507.793l-.3.053Zm0,0" transform="translate(-270.109 -458.207)"/><path class="a" d="M278.351,510.34q-.369.042-.741.073Q277.982,510.382,278.351,510.34Zm0,0" transform="translate(-250.503 -460.503)"/><path class="a" d="M286.8,509.738c-.118.016-.237.03-.355.044C286.564,509.768,286.683,509.754,286.8,509.738Zm0,0" transform="translate(-258.474 -459.961)"/><path class="a" d="M306.93,506.41l-.266.056Zm0,0" transform="translate(-276.718 -456.96)"/><path class="a" d="M324.7,502.113l-.215.06Zm0,0" transform="translate(-292.798 -453.086)"/><path class="a" d="M319.293,503.543l-.234.061Zm0,0" transform="translate(-287.902 -454.376)"/><path class="a" d="M312.315,505.254l-.248.056Zm0,0" transform="translate(-281.593 -455.918)"/><path class="a" d="M273.879,511.09q-.2.017-.4.03Q273.68,511.107,273.879,511.09Zm0,0" transform="translate(-246.775 -461.18)"/><path class="a" d="M50,25A25,25,0,1,0,25,50c.147,0,.293,0,.439-.006V30.533H20.068v-6.26h5.371V19.667c0-5.342,3.261-8.25,8.027-8.25a44.214,44.214,0,0,1,4.815.246v5.583H35c-2.592,0-3.094,1.232-3.094,3.04v3.987h6.2l-.808,6.26H31.9v18.5A25.013,25.013,0,0,0,50,25Zm0,0"/><path class="a" d="M265.681,511.43q-.393.025-.79.039Q265.287,511.456,265.681,511.43Zm0,0" transform="translate(-239.026 -461.486)"/><path class="a" d="M260.922,511.836q-.209.007-.418.01Q260.713,511.843,260.922,511.836Zm0,0" transform="translate(-235.066 -461.852)"/></svg>