<svg xmlns="http://www.w3.org/2000/svg" width="90.82" height="52.412" viewBox="0 0 90.82 52.412"><defs><style>.a,.b{fill:#fff;}.a{fill-rule:evenodd;}</style></defs><g transform="translate(0.005 0.005)"><g transform="translate(-0.005 -0.005)"><path class="a" d="M37.547,11.622S39.7,10,41.3,15.555a9.531,9.531,0,0,1,.246,3.034,11.9,11.9,0,0,1-.836,3.14S38.6,25.571,36.5,27.021s-3.375.941-3.375.941-1.236-.551-.808-1.2,1.338.33,1.338.33.144.144.253-.077-.267-.664-.267-.664a2.42,2.42,0,0,0-1.106-.681A1.9,1.9,0,0,0,30,28.261a2.383,2.383,0,0,0,2.181,1.257c2.272.2,3.863-.66,5.619-2.075a12.375,12.375,0,0,0,2.086-2.125,15.926,15.926,0,0,0,2.6-5.485,10.887,10.887,0,0,0-.471-6.743A5.054,5.054,0,0,0,37.639,10c-3.147-.025-2.616,2.149-2.616,2.149s.636,2.03,1.974,1.917,1.054-.829,1.054-.829,0-.295-.657-.569.165-1.029.165-1.029Z" transform="translate(-19.326 -6.486)"/><path class="a" d="M21.106,54.717a17.835,17.835,0,0,1-9.257,5.377c-6.132,1.471-8.077-.2-8.077-.2S1.665,58.313,3.3,57.031a4.031,4.031,0,0,1,.874-.5,2.079,2.079,0,0,1,1.377.028c.263.077.555.176.572.516a.318.318,0,0,1-.211.295.671.671,0,0,1-.523-.06c-.316-.253-.418.067-.351.351a.853.853,0,0,0,.351.45c.558.379,1.306-.169,1.306-.169a1.364,1.364,0,0,0,.025-2.188c-1.264-1.166-3.694-.846-3.694-.846s-3.512.428-2.981,3.7,5.067,3.673,5.067,3.673A17.216,17.216,0,0,0,15.828,59.8s-.105.306-.881.836c-.411.281-.759.5-1,.643-.155.091-.727.351-.488.625.165.186,1.148-.183,1.148-.183a16.383,16.383,0,0,0,5.412-4.1c1.96-2.535,1.658-3.1,1.658-3.1s-.123-.351-.548.2Z" transform="translate(0.005 -35.298)"/><path class="a" d="M68.55,47.952s1.162-3.7,4.432-4.885a19.135,19.135,0,0,0-1.633,1.823s3.392-.839,3.965-1.594c0,0,.818-.769.07-1.4,0,0-.52-.379-.351-.5s.825.14.825.14,1.9.664,1,2.237-5.478,2.809-5.478,2.809a10.289,10.289,0,0,0-2.809,1.366Z" transform="translate(-44.475 -26.834)"/><path class="a" d="M63.37,49.953s.407-2.964,4.312-4.618c0,0,5.222-1.514,5.917-2.557a3.607,3.607,0,0,1-1.552,2.374s7.989.1,9.626-2.883-1.861-2.514-1.861-2.514-1.289.439-.92,1.349c0,0,.144.351,0,.411s-.523-.176-.523-.176-1.349-1.082.674-2.514a3.814,3.814,0,0,1,3.986-.288s2.514,1.208,1,4.253-5.268,3.161-5.268,3.161l-6.929.418s-5.64.351-8.463,3.586Z" transform="translate(-41.114 -24.722)"/><path class="a" d="M58.918,7.547s1.549.78.446,1.636-2.107-.98-2.107-.98A2.072,2.072,0,0,1,57.4,6.318a4.738,4.738,0,0,0,.274-2.739s-.92-2.353-2.809-1.545c0,0-1.257,1.022-.636,3.385S55.255,9.9,55.255,9.9a15.645,15.645,0,0,1,.211,2.209,9.666,9.666,0,0,1-.91,4.105c-.446,1.254-1.19,2.908-1.485,3.512s-4.028,8.6-4.028,8.6-2.29,5.886-2.086,11.16,1.84,7.916,1.84,7.916,1.429,2.809,3.666,3.4c.615.165,1.257.256,1.672-.32a1.011,1.011,0,0,0-.095-1.222s-.428-.583-.952-.5-.4-.541-.4-.541.112-.808,1.166-.6a3.371,3.371,0,0,1,1.7.9,2.058,2.058,0,0,1,.471,2.676,2.728,2.728,0,0,1-2.862,1.166,8.236,8.236,0,0,1-5.352-3.371,16.529,16.529,0,0,1-2.37-4.681,20.984,20.984,0,0,1-.572-7.782c.2-1.352.457-2.56.7-3.557a22.468,22.468,0,0,1,2.188-5.714c.864-1.787,1.847-3.8,1.991-3.993a52.768,52.768,0,0,0,2.5-5.784A15.737,15.737,0,0,0,53.541,12a20.15,20.15,0,0,0-1.384-6.321,5.6,5.6,0,0,1-.551-2.922S51.993-.084,55.9,0s3.68,5.643,3.68,5.643a2.711,2.711,0,0,1-.66,1.907Z" transform="translate(-29.003 0.005)"/><path class="a" d="M35.82,70.142s-.2-.274-1.247.572a32.055,32.055,0,0,1-7.427,3.947l-.91.218c-.109.025-.435.06-.488.176s.183.256,2.286.081a12.147,12.147,0,0,0,5.619-2.251s.249-.147.095.2-.7,1.219-.7,1.219-1.011,1.928-.263,3.287a15.887,15.887,0,0,1,2.251-5.268s1.264-1.756.79-2.167Z" transform="translate(-16.7 -45.481)"/><path class="a" d="M65.6,66.8s-.267-2.205-2.883-1.816-5.029,3.269-5.029,3.269a19.736,19.736,0,0,0-2.757,5.556,22.273,22.273,0,0,0-.611,6.929s.288,7.4,5.559,7.522a4.066,4.066,0,0,0,4.13-3.21s.773-3.066-1.187-4.214a3.473,3.473,0,0,0-1.45-.5A1.973,1.973,0,0,0,59.02,82.02a1.893,1.893,0,0,0,.263,1.514s.439.351.351-.379a1.134,1.134,0,0,1,.572-1.075s1.356-.825,1.756.888a2.946,2.946,0,0,1-.643,2.739s-1.615,2.005-3.371-.351-2.9-6.086-1.183-12.221,5.914-6.469,5.914-6.469,1.285-.081,1.054,1.4-1.331.92-1.331.92-.73-.776-1.029-.256.235,1.2.235,1.2.776,1.054,2.7.095a3.085,3.085,0,0,0,1.285-3.22Z" transform="translate(-35.208 -42.132)"/><path class="b" d="M90.009,76.075H86.56l1.721-4.667ZM84,79.534h1.338l.853-2.406h4.214l.853,2.406h1.32L89,70.157h-1.44ZM96.825,71.2a1.914,1.914,0,0,1,1.37.457,2,2,0,0,1,0,2.606,1.917,1.917,0,0,1-1.37.46H95.231V71.211Zm-2.862,8.333h1.268V75.766h1.594a3.54,3.54,0,0,0,2.384-.7,3.125,3.125,0,0,0,0-4.193,3.492,3.492,0,0,0-2.384-.7H93.963v9.376Zm13.4-5.208a2.924,2.924,0,0,0-.383-3.5,3.634,3.634,0,0,0-2.4-.671H101.72v9.376h1.243V75.569h1.4a2.047,2.047,0,0,1,1.19.309,3.357,3.357,0,0,1,.9,1.25l1.2,2.406h1.363l-1.289-2.564a5.97,5.97,0,0,0-.776-1.243,1.858,1.858,0,0,0-.794-.59,2.128,2.128,0,0,0,1.2-.811ZM104.583,71.2a2.033,2.033,0,0,1,1.4.414,1.893,1.893,0,0,1,0,2.49,2.016,2.016,0,0,1-1.4.425h-1.619V71.2Zm6.075,8.333h1.268V70.157h-1.268Zm8.014-9.429a8.043,8.043,0,0,0-1.345-.119,3.7,3.7,0,0,0-2.423.7,2.391,2.391,0,0,0-.878,1.96,2.2,2.2,0,0,0,.636,1.679,4.154,4.154,0,0,0,2.054.885l.773.151a2.929,2.929,0,0,1,1.4.583,1.566,1.566,0,0,1-.169,2.3,2.809,2.809,0,0,1-1.675.428,5.081,5.081,0,0,1-1.457-.221,7.522,7.522,0,0,1-1.514-.653v1.317a10.6,10.6,0,0,0,1.528.45,7.069,7.069,0,0,0,1.4.151,4.367,4.367,0,0,0,2.679-.7,2.809,2.809,0,0,0,.239-3.891,3.9,3.9,0,0,0-2.107-.952l-.766-.158a3.234,3.234,0,0,1-1.4-.513,1.159,1.159,0,0,1-.376-.938,1.327,1.327,0,0,1,.562-1.145,2.739,2.739,0,0,1,1.6-.4,4.86,4.86,0,0,1,1.236.169,7.61,7.61,0,0,1,1.363.516v-1.24a10.024,10.024,0,0,0-1.4-.351Zm9.57.105a5.535,5.535,0,0,0-1.584-.225,4.38,4.38,0,0,0-3.357,1.3,5.8,5.8,0,0,0,0,7.125,4.38,4.38,0,0,0,3.357,1.3,5.394,5.394,0,0,0,1.573-.225,5.163,5.163,0,0,0,1.4-.681V77.486a4.467,4.467,0,0,1-1.387.892,4.056,4.056,0,0,1-1.542.295,3.079,3.079,0,0,1-2.458-.983,5.15,5.15,0,0,1,0-5.679,3.094,3.094,0,0,1,2.458-.983,4.056,4.056,0,0,1,1.542.295,4.467,4.467,0,0,1,1.366.892V70.877a5.019,5.019,0,0,0-1.4-.667Zm9.355,1.837a5.309,5.309,0,0,1,0,5.619,2.845,2.845,0,0,1-4.386,0,5.251,5.251,0,0,1,0-5.619,2.852,2.852,0,0,1,4.386,0Zm-5.352-.737a5.115,5.115,0,0,0-1.187,3.547,5.194,5.194,0,0,0,1.173,3.557,4.432,4.432,0,0,0,6.321,0,5.905,5.905,0,0,0,0-7.083,4.425,4.425,0,0,0-6.321,0Z" transform="translate(-54.499 -45.401)"/><path class="b" d="M113.607,101.794a5.436,5.436,0,0,0-1.587-.225,4.382,4.382,0,0,0-3.354,1.3,5.791,5.791,0,0,0,0,7.125,4.375,4.375,0,0,0,3.354,1.3,5.478,5.478,0,0,0,1.573-.225,5.184,5.184,0,0,0,1.4-.681v-1.324a4.565,4.565,0,0,1-1.366.892,4.056,4.056,0,0,1-1.542.295,3.087,3.087,0,0,1-2.458-.983,5.15,5.15,0,0,1,0-5.679,3.087,3.087,0,0,1,2.458-.983,4.056,4.056,0,0,1,1.542.295A4.565,4.565,0,0,1,115,103.8v-1.338a5.064,5.064,0,0,0-1.4-.667Zm3.357,9.324h1.268v-4.481h4.611V111.1h1.268v-9.376h-1.268v3.856h-4.618v-3.842h-1.268v9.376Zm9.527-3.512a3.816,3.816,0,0,0,.91,2.767,3.591,3.591,0,0,0,2.683.938,3.553,3.553,0,0,0,2.679-.938,3.865,3.865,0,0,0,.91-2.767v-5.865H132.4v5.7a3.414,3.414,0,0,1-.548,2.17,2.654,2.654,0,0,1-3.512,0,3.5,3.5,0,0,1-.548-2.17v-5.7h-1.275V107.6Zm15.206-1.686a2.924,2.924,0,0,0-.383-3.5,3.634,3.634,0,0,0-2.4-.671h-2.869v9.376h1.268v-3.975h1.38a2.047,2.047,0,0,1,1.191.309,3.326,3.326,0,0,1,.9,1.25l1.2,2.406h1.363l-1.289-2.564a5.97,5.97,0,0,0-.776-1.243,1.858,1.858,0,0,0-.794-.59,2.128,2.128,0,0,0,1.2-.811Zm-2.788-3.147a2.033,2.033,0,0,1,1.387.418,1.591,1.591,0,0,1,.467,1.243,1.612,1.612,0,0,1-.467,1.254,2.016,2.016,0,0,1-1.387.421h-1.594v-3.336Z" transform="translate(-69.708 -65.899)"/><path class="b" d="M217.253,101.794a5.4,5.4,0,0,0-1.584-.225,4.382,4.382,0,0,0-3.354,1.3,5.791,5.791,0,0,0,0,7.125,4.375,4.375,0,0,0,3.354,1.3,5.5,5.5,0,0,0,1.573-.225,5.162,5.162,0,0,0,1.4-.681v-1.324a4.467,4.467,0,0,1-1.366.892,4.042,4.042,0,0,1-1.542.295,3.072,3.072,0,0,1-2.458-.983,5.15,5.15,0,0,1,0-5.679,3.064,3.064,0,0,1,2.458-.983,4.042,4.042,0,0,1,1.542.295,4.467,4.467,0,0,1,1.366.892v-1.338a5.018,5.018,0,0,0-1.4-.667Zm3.357,9.324h1.271v-4.481h4.629V111.1h1.268v-9.376H226.51v3.856h-4.629v-3.842H220.61Z" transform="translate(-136.958 -65.899)"/></g></g></svg>