<svg xmlns="http://www.w3.org/2000/svg" width="25.35" height="21.457" viewBox="0 0 25.35 21.457"><defs><style>.a{fill:#272727;}</style></defs><g transform="translate(0 -31.93)"><g transform="translate(6.06 31.93)"><path class="a" d="M111.506,32.877a3.512,3.512,0,0,0-2.427-.947,3.87,3.87,0,0,0-2.727,1.133l-.319.319-.319-.319a3.872,3.872,0,0,0-2.727-1.133,3.512,3.512,0,0,0-2.427.947,3.624,3.624,0,0,0-.08,5.2l5.553,5.553,5.553-5.553A3.624,3.624,0,0,0,111.506,32.877Z" transform="translate(-99.418 -31.93)"/></g><g transform="translate(0 32.909)"><g transform="translate(0 0)"><path class="a" d="M10.729,68.464l0-5.5a4.634,4.634,0,0,0-3.164-4.8,3.584,3.584,0,0,1-1.373-.972c-.762-.793-1.576-1.878-2.631-1.865v0a1.389,1.389,0,0,0-.986.427,1.689,1.689,0,0,0,.186,2.372l1.96,1.96a.975.975,0,0,1,0,1.379l-2.65-2.649A3.054,3.054,0,0,1,1.207,57.1,2.393,2.393,0,0,1,3.32,54.368l-.4-1.6C2.894,46.838,0,47.562,0,48.958V59.371a2.425,2.425,0,0,0,.706,1.716c4.845,4.89,4.171,3.315,4.171,7.377Z" transform="translate(0 -47.986)"/></g></g><g transform="translate(14.621 32.909)"><g transform="translate(0 0)"><path class="a" d="M250.587,48.959c0-1.4-2.894-2.12-2.924,3.812l-.4,1.6a2.393,2.393,0,0,1,2.113,2.733,3.053,3.053,0,0,1-.859,1.708l-2.65,2.649a.975.975,0,0,1,0-1.379l1.96-1.96a1.689,1.689,0,0,0,.186-2.372,1.389,1.389,0,0,0-.986-.427v0c-1.055-.013-1.869,1.072-2.631,1.865a3.586,3.586,0,0,1-1.373.972,4.634,4.634,0,0,0-3.164,4.8l0,5.5h5.852c0-4.062-.674-2.487,4.171-7.377a2.425,2.425,0,0,0,.706-1.716Z" transform="translate(-239.859 -47.987)"/></g></g></g></svg>