<svg xmlns="http://www.w3.org/2000/svg" width="50" height="50" viewBox="0 0 50 50"><defs><style>.a{fill:#272727;}.b{fill:#ebe6db;}</style></defs><g transform="translate(-668 -980)"><circle class="a" cx="25" cy="25" r="25" transform="translate(668 980)"/><g transform="translate(677.739 990.178)"><path class="b" d="M13.481,5.838a7.635,7.635,0,1,0,7.635,7.635,7.634,7.634,0,0,0-7.635-7.635Zm0,12.591a4.956,4.956,0,1,1,4.956-4.956A4.954,4.954,0,0,1,13.481,18.429Z" transform="translate(1.402 1.4)"/><path class="b" d="M21.013.094c-2.738-.128-9.518-.122-12.259,0A8.892,8.892,0,0,0,2.511,2.5C-.351,5.362.015,9.218.015,14.873c0,5.788-.322,9.554,2.5,12.373,2.873,2.872,6.785,2.5,12.373,2.5,5.733,0,7.712,0,9.739-.781,2.756-1.07,4.837-3.534,5.04-7.959.129-2.739.122-9.518,0-12.259C29.417,3.52,26.614.352,21.013.094Zm4.333,25.258c-1.876,1.876-4.478,1.709-10.5,1.709-6.2,0-8.685.092-10.5-1.727-2.089-2.079-1.711-5.418-1.711-10.481,0-6.85-.7-11.784,6.172-12.136,1.58-.056,2.045-.074,6.021-.074l.056.037c6.607,0,11.791-.692,12.1,6.182.071,1.568.087,2.04.087,6.01,0,6.127.115,8.628-1.728,10.481Z" transform="translate(0 0)"/><circle class="b" cx="1.784" cy="1.784" r="1.784" transform="translate(21.037 5.153)"/></g></g></svg>