<svg xmlns="http://www.w3.org/2000/svg" width="99.945" height="120.722" viewBox="0 0 99.945 120.722"><defs><style>.a{fill:#272727;fill-rule:evenodd;}</style></defs><g transform="translate(0 0)"><path class="a" d="M54.214,15.913s4.927-3.7,8.621,9.066a21.653,21.653,0,0,1,.564,7,27.231,27.231,0,0,1-1.9,7.262s-4.828,8.814-9.7,12.156-7.773,2.169-7.773,2.169S41.183,52.3,42.171,50.8s3.084.763,3.084.763.332.325.577-.186-.61-1.525-.61-1.525a5.6,5.6,0,0,0-2.553-1.572c-2.268-.663-4.881-.232-5.969,2.109a4.715,4.715,0,0,0,.133,3.886c.822,1.99,2.911,2.719,5.02,2.9,5.233.458,8.887-1.519,12.945-4.775a28.835,28.835,0,0,0,4.808-4.894,37.05,37.05,0,0,0,5.969-12.674A25.235,25.235,0,0,0,64.5,19.3s-2.825-7.056-10.074-7.156S48.4,17.087,48.4,17.087s1.466,4.682,4.543,4.423,2.407-1.91,2.407-1.91.046-.663-1.505-1.326.378-2.374.378-2.374Z" transform="translate(-12.242 -4.084)"/><path class="a" d="M48.632,67.09S41.43,76.076,27.3,79.478s-18.649-.471-18.649-.471-4.874-3.594-1.074-6.585a9.012,9.012,0,0,1,1.99-1.134,4.767,4.767,0,0,1,3.17.06c.61.172,1.28.4,1.326,1.187a.708.708,0,0,1-.491.663,1.572,1.572,0,0,1-1.207-.139c-.73-.577-.962.153-.776.783a1.99,1.99,0,0,0,.829,1.041c1.287.869,3.018-.391,3.018-.391a3.138,3.138,0,0,0,.046-5.04c-2.925-2.686-8.515-1.93-8.515-1.93S-1.061,68.529.12,76.076s11.672,8.469,11.672,8.469,11.42,1.976,24.684-5.75c0,0-.232.71-2.023,1.93-.948.663-1.757,1.147-2.315,1.479-.358.212-1.678.822-1.127,1.446.378.424,2.653-.424,2.653-.424s7.958-3.6,12.435-9.444,3.82-7.156,3.82-7.156-.285-.789-1.267.464Z" transform="translate(-0.001 -22.354)"/><path class="a" d="M83.62,65.65s2.653-8.522,10.22-11.274a44.161,44.161,0,0,0-3.767,4.191s7.812-1.93,9.132-3.667c0,0,1.883-1.771.166-3.2,0,0-1.2-.875-.842-1.154s1.9.325,1.9.325,4.384,1.532,2.308,5.16-12.6,6.459-12.6,6.459a23.822,23.822,0,0,0-6.5,3.144Z" transform="translate(-28.165 -16.995)"/><path class="a" d="M77.31,73.785s.935-6.824,9.948-10.611c0,0,12.03-3.482,13.635-5.882a8.33,8.33,0,0,1-3.581,5.465s18.41.232,22.177-6.632-4.284-5.8-4.284-5.8-2.964,1.015-2.122,3.11c0,0,.332.776-.04.942s-1.207-.4-1.207-.4-3.117-2.5,1.545-5.816a8.787,8.787,0,0,1,9.185-.663s5.79,2.779,2.3,9.8-12.1,7.3-12.1,7.3l-15.963.942s-12.992.8-19.5,8.263Z" transform="translate(-26.04 -15.66)"/><path class="a" d="M87.241,17.4s3.575,1.784,1.035,3.76-4.848-2.255-4.848-2.255a4.774,4.774,0,0,1,.332-4.357c1.393-2,.663-6.307.663-6.307S82.3,2.823,77.923,4.68c0,0-2.9,2.361-1.459,7.8s2.341,10.332,2.341,10.332A35.531,35.531,0,0,1,79.29,27.9c.08,3.979-.829,5.969-2.089,9.464-1.028,2.885-2.752,6.7-3.429,8.058s-9.285,19.823-9.285,19.823S59.182,78.8,59.679,90.954s4.238,18.264,4.238,18.264,3.316,6.433,8.456,7.819c1.413.385,2.9.6,3.853-.736.431-.6.617-1.519-.225-2.819,0,0-.988-1.326-2.189-1.154s-.922-1.247-.922-1.247.259-1.857,2.653-1.393a7.812,7.812,0,0,1,3.913,2.069,4.756,4.756,0,0,1,1.088,6.174c-2.116,3.674-6.632,2.653-6.632,2.653a18.982,18.982,0,0,1-12.329-7.766c-4.516-6.778-5.465-10.783-5.465-10.783s-2.653-9.165-1.326-17.906c.464-3.117,1.054-5.9,1.618-8.2,1.439-5.856,2.467-7.8,5.047-13.158,1.99-4.118,4.251-8.761,4.583-9.2.623-.8,3.581-7.58,5.75-13.323a36.332,36.332,0,0,0,3-12.6C74.84,24,73.016,15.914,71.6,13.1A12.965,12.965,0,0,1,70.4,6.358S71.3-.188,80.284,0s8.482,13,8.482,13A6.306,6.306,0,0,1,87.241,17.4Z" transform="translate(-18.33 0.006)"/><path class="a" d="M54.628,85.616s-.471-.663-2.878,1.326a72.865,72.865,0,0,1-17.11,9.086l-2.1.5c-.245.06-1,.139-1.121.4s.418.59,5.266.186c6.99-.59,12.926-5.18,12.926-5.18s.577-.345.225.458-1.612,2.805-1.612,2.805-2.334,4.443-.617,7.574A36.787,36.787,0,0,1,52.8,90.61s2.918-3.979,1.824-4.987Z" transform="translate(-10.58 -28.797)"/><path class="a" d="M92.3,83.511s-.61-5.08-6.632-4.185S74.086,86.86,74.086,86.86a45.455,45.455,0,0,0-6.36,12.806c-2.116,7.156-1.413,15.963-1.413,15.963s.663,17.037,12.813,17.329c0,0,7.017.7,9.517-7.395,0,0,1.784-7.07-2.739-9.7a8.018,8.018,0,0,0-3.316-1.134c-2.971-.265-4.795,1.061-5.418,3.866a4.324,4.324,0,0,0,.61,3.482s1.015.829.849-.869a2.606,2.606,0,0,1,1.326-2.474s3.124-1.9,4.072,2.049a6.8,6.8,0,0,1-1.486,6.307s-3.72,4.642-7.766-.849-6.718-14.007-2.739-28.152S85.579,83.206,85.579,83.206s2.964-.186,2.447,3.2-3.064,2.116-3.064,2.116-1.684-1.791-2.374-.584.537,2.772.537,2.772,1.791,2.447,6.221.219C89.346,90.932,92.993,88.942,92.3,83.511Z" transform="translate(-22.298 -26.679)"/></g></svg>