<?xml version="1.0" encoding="utf-8"?>
<!-- Generator: Adobe Illustrator 23.0.0, SVG Export Plug-In . SVG Version: 6.00 Build 0)  -->
<svg version="1.1" id="Camada_1" xmlns="http://www.w3.org/2000/svg" xmlns:xlink="http://www.w3.org/1999/xlink" x="0px" y="0px"
	 viewBox="0 0 18.8 22.8" style="enable-background:new 0 0 18.8 22.8;" xml:space="preserve">
<style type="text/css">
	.st0{fill-rule:evenodd;clip-rule:evenodd;fill:#272727;}
</style>
<g transform="translate(0 0)">
	<path class="st0" d="M7.9,2.2c0,0,0.9-0.7,1.6,1.7c0.1,0.4,0.1,0.9,0.1,1.3C9.6,5.7,9.5,6.2,9.3,6.6c0,0-0.9,1.7-1.8,2.3
		S6,9.3,6,9.3S5.5,9.1,5.6,8.8S6.2,9,6.2,9s0.1,0.1,0.1,0S6.2,8.6,6.2,8.6C6.1,8.5,5.9,8.4,5.7,8.3c-0.4-0.1-0.9,0-1.1,0.4
		C4.5,9,4.5,9.2,4.6,9.5C4.8,9.8,5.2,10,5.6,10c1,0.1,1.7-0.3,2.4-0.9c0.3-0.3,0.6-0.6,0.9-0.9c0.5-0.7,0.9-1.5,1.1-2.4
		c0.2-1,0.2-2-0.2-2.9c0,0-0.5-1.3-1.9-1.3S6.8,2.5,6.8,2.5s0.3,0.9,0.9,0.8c0.6,0,0.5-0.4,0.5-0.4s0-0.1-0.3-0.2
		C7.6,2.6,7.9,2.2,7.9,2.2L7.9,2.2z"/>
	<path class="st0" d="M9.2,8.4c0,0-1.4,1.7-4,2.3s-3.5-0.1-3.5-0.1S0.7,10,1.4,9.4c0.1-0.1,0.2-0.2,0.4-0.2c0.2-0.1,0.4-0.1,0.6,0
		c0.1,0,0.2,0.1,0.2,0.2c0,0.1,0,0.1-0.1,0.1c-0.1,0-0.2,0-0.2,0c-0.1-0.1-0.2,0-0.1,0.1c0,0.1,0.1,0.2,0.2,0.2
		c0.2,0.2,0.6-0.1,0.6-0.1C3.2,9.6,3.2,9.3,3,9C3,9,3,8.9,2.9,8.9C2.4,8.4,1.3,8.5,1.3,8.5S-0.2,8.7,0,10.1s2.2,1.6,2.2,1.6
		s2.1,0.4,4.6-1.1c0,0,0,0.1-0.4,0.4c-0.2,0.1-0.3,0.2-0.4,0.3c-0.1,0-0.3,0.2-0.2,0.3c0.1,0.1,0.5-0.1,0.5-0.1s1.5-0.7,2.3-1.8
		s0.7-1.3,0.7-1.3S9.4,8.2,9.2,8.4L9.2,8.4z"/>
	<path class="st0" d="M10.5,9.2c0,0,0.5-1.6,1.9-2.1c-0.3,0.2-0.5,0.5-0.7,0.8c0,0,1.5-0.4,1.7-0.7c0,0,0.4-0.3,0-0.6
		c0,0-0.2-0.2-0.2-0.2c0.1-0.1,0.4,0.1,0.4,0.1s0.8,0.3,0.4,1c-0.4,0.7-2.4,1.2-2.4,1.2C11.2,8.7,10.8,8.9,10.5,9.2L10.5,9.2z"/>
	<path class="st0" d="M9.7,11c0,0,0.2-1.3,1.9-2c0,0,2.3-0.7,2.6-1.1c-0.1,0.4-0.3,0.8-0.7,1c0,0,3.5,0,4.2-1.2s-0.8-1.1-0.8-1.1
		s-0.6,0.2-0.4,0.6c0,0,0.1,0.1,0,0.2s-0.2-0.1-0.2-0.1s-0.6-0.5,0.3-1.1C17,5.8,17.6,5.7,18.2,6c0,0,1.1,0.5,0.4,1.8
		c-0.7,1.3-2.3,1.4-2.3,1.4l-3,0.2C13.3,9.4,10.9,9.6,9.7,11L9.7,11z"/>
	<path class="st0" d="M13,3.3c0,0,0.7,0.3,0.2,0.7s-0.9-0.4-0.9-0.4c-0.1-0.3-0.1-0.6,0.1-0.8c0.3-0.4,0.1-1.2,0.1-1.2
		s-0.4-1-1.2-0.7c0,0-0.5,0.4-0.3,1.5s0.4,1.9,0.4,1.9c0.1,0.3,0.1,0.6,0.1,1c0,0.7-0.2,1.1-0.4,1.8c-0.2,0.5-0.5,1.3-0.6,1.5
		c-0.1,0.3-1.7,3.7-1.7,3.7s-1,2.6-0.9,4.8s0.8,3.4,0.8,3.4s0.6,1.2,1.6,1.5c0.3,0.1,0.5,0.1,0.7-0.1c0.1-0.1,0.1-0.3,0-0.5
		c0,0-0.2-0.2-0.4-0.2c-0.2,0-0.2-0.2-0.2-0.2s0-0.3,0.5-0.3c0.3,0.1,0.5,0.2,0.7,0.4c0.4,0.3,0.4,0.8,0.2,1.2
		c-0.4,0.7-1.2,0.5-1.2,0.5c-0.9-0.2-1.8-0.7-2.3-1.5c-0.9-1.3-1-2-1-2s-0.5-1.7-0.2-3.4c0.1-0.6,0.2-1.1,0.3-1.5
		c0.3-1.1,0.5-1.5,0.9-2.5c0.4-0.8,0.8-1.6,0.9-1.7c0.1-0.2,0.7-1.4,1.1-2.5c0.3-0.8,0.5-1.6,0.6-2.4c0-0.7-0.3-2.2-0.6-2.7
		C9.9,2.1,9.8,1.7,9.8,1.2c0,0,0.2-1.2,1.9-1.2s1.6,2.4,1.6,2.4C13.3,2.8,13.2,3.1,13,3.3z"/>
	<path class="st0" d="M8.3,10.7c0,0-0.1-0.1-0.5,0.2c-1,0.7-2.1,1.3-3.2,1.7l-0.4,0.1c0,0-0.2,0-0.2,0.1s0.1,0.1,1,0
		c1.3-0.1,2.4-1,2.4-1s0.1-0.1,0,0.1c-0.1,0.2-0.3,0.5-0.3,0.5S6.7,13.4,7,13.9c0.2-0.8,0.5-1.6,1-2.3C8,11.7,8.5,10.9,8.3,10.7
		L8.3,10.7z"/>
	<path class="st0" d="M13.2,10.7c0,0-0.1-1-1.2-0.8c-1.1,0.2-2.2,1.4-2.2,1.4c-0.5,0.7-0.9,1.5-1.2,2.4c-0.4,1.3-0.3,3-0.3,3
		S8.4,20,10.7,20c0,0,1.3,0.1,1.8-1.4c0,0,0.3-1.3-0.5-1.8c-0.2-0.1-0.4-0.2-0.6-0.2c-0.6,0-0.9,0.2-1,0.7c-0.1,0.2,0,0.5,0.1,0.7
		c0,0,0.2,0.2,0.2-0.2c0-0.2,0.1-0.4,0.2-0.5c0,0,0.6-0.4,0.8,0.4c0.1,0.4,0,0.9-0.3,1.2c0,0-0.7,0.9-1.5-0.2
		c-0.8-1-1.3-2.6-0.5-5.3c0.7-2.7,2.5-2.8,2.5-2.8s0.6,0,0.5,0.6c-0.1,0.6-0.6,0.4-0.6,0.4s-0.3-0.3-0.4-0.1
		c-0.1,0.2,0.1,0.5,0.1,0.5s0.3,0.5,1.2,0C12.6,12.1,13.3,11.7,13.2,10.7z"/>
</g>
</svg>
