<svg xmlns="http://www.w3.org/2000/svg" width="27.979" height="24.372" viewBox="0 0 27.979 24.372"><defs><style>.a{fill:#272727;}</style></defs><g transform="translate(0 -33.001)"><path class="a" d="M38.774,33H19.542l9.589,6.393Z" transform="translate(-18.474 0)"/><path class="a" d="M15.818,66.028l5.549-2.752V56.03l-10.258,6.8a.82.82,0,0,1-.908,0L0,56.029V70.345a.82.82,0,0,0,.82.82H8.252V69.58A3.556,3.556,0,0,1,11.8,66.028Z" transform="translate(0 -21.77)"/><path class="a" d="M467.143,248.95l.874-.383a.82.82,0,0,0-.657-1.5l-.874.383a.82.82,0,0,0,.657,1.5Z" transform="translate(-440.53 -202.302)"/><path class="a" d="M468.017,374.449l-.874-.383a.82.82,0,1,0-.657,1.5l.874.383a.82.82,0,0,0,.657-1.5Z" transform="translate(-440.53 -322.363)"/><path class="a" d="M467.692,314h-.874a.82.82,0,0,0,0,1.639h.874a.82.82,0,1,0,0-1.639Z" transform="translate(-440.533 -265.645)"/><path class="a" d="M182.911,266.884A1.915,1.915,0,0,0,181,268.8v2.732a1.916,1.916,0,0,0,1.5,1.867l-.668,4.009a.82.82,0,0,0,.809.954h3.279a.82.82,0,0,0,.807-.676l.74-4.165.092.046v-6.8l-.247.122Z" transform="translate(-171.107 -220.987)"/><path class="a" d="M335.553,209.072,331,211.33v8.428l4.554,2.258a.82.82,0,0,0,1.184-.734V209.806A.82.82,0,0,0,335.553,209.072Z" transform="translate(-312.911 -166.368)"/></g></svg>