<svg xmlns="http://www.w3.org/2000/svg" width="20.28" height="29.554" viewBox="0 0 20.28 29.554"><defs><style>.a{fill:#272727;}</style></defs><g transform="translate(-80.334)"><g transform="translate(80.334 12.984)"><g transform="translate(0)"><path class="a" d="M100.614,225.8a.866.866,0,1,0-1.732,0,8.408,8.408,0,0,1-16.817,0,.866.866,0,1,0-1.732,0,10.153,10.153,0,0,0,9.274,10.1v3.87H87.692a.866.866,0,1,0,0,1.732h5.564a.866.866,0,1,0,0-1.732H91.34V235.9A10.153,10.153,0,0,0,100.614,225.8Z" transform="translate(-80.334 -224.934)"/></g></g><g transform="translate(85.898)"><g transform="translate(0)"><path class="a" d="M181.309,0a4.581,4.581,0,0,0-4.575,4.575V13.85a4.576,4.576,0,0,0,9.151,0V4.575A4.581,4.581,0,0,0,181.309,0Z" transform="translate(-176.734)"/></g></g></g></svg>