<svg xmlns="http://www.w3.org/2000/svg" width="308" height="59.12" viewBox="0 0 308 59.12"><defs><style>.a,.b{fill:#272727;}.b{font-size:45px;font-family:Ubuntu-Light, Ubuntu;font-weight:300;letter-spacing:-0.034em;}</style></defs><g transform="translate(-553 -534)"><path class="a" d="M24.48,0q-.631-1.845-1.308-3.645t-1.308-3.69H8.691Q8.06-5.445,7.406-3.623T6.12,0H.224Q1.977-4.995,3.551-9.225t3.08-8.01q1.506-3.78,2.99-7.2t3.058-6.75h5.413q1.575,3.33,3.06,6.75t2.993,7.2q1.508,3.78,3.105,8.01T30.6,0Zm-9.2-25.155q-1.035,2.385-2.363,5.805t-2.767,7.425h10.26q-1.44-4-2.79-7.47T15.278-25.155ZM41.805-31.5q6.795,0,10.417,2.475t3.623,7.74a10.519,10.519,0,0,1-.967,4.7,8.127,8.127,0,0,1-2.812,3.195,13.047,13.047,0,0,1-4.5,1.823,28.394,28.394,0,0,1-6.075.585H38.655V0h-5.67V-30.735a28.15,28.15,0,0,1,4.388-.608Q39.78-31.5,41.805-31.5Zm.4,4.905q-2.16,0-3.555.135v10.62H41.4a13.927,13.927,0,0,0,6.3-1.148q2.2-1.147,2.2-4.343A5.149,5.149,0,0,0,49.32-23.9a4.2,4.2,0,0,0-1.62-1.62,7.616,7.616,0,0,0-2.452-.832A17.666,17.666,0,0,0,42.21-26.6ZM68.085-31.5q6.75,0,10.328,2.475t3.577,7.56q0,6.345-6.255,8.6.855,1.035,1.935,2.52t2.205,3.218Q81-5.4,82.035-3.578T83.88,0H77.535Q76.68-1.62,75.69-3.263t-2-3.195q-1.012-1.553-2-2.925T69.84-11.835q-.63.045-1.08.045h-3.6V0H59.49V-30.735a30.359,30.359,0,0,1,4.41-.608Q66.24-31.5,68.085-31.5ZM68.49-26.6q-1.8,0-3.33.135v10.08h2.475a26.062,26.062,0,0,0,3.645-.225,7.668,7.668,0,0,0,2.633-.81,3.941,3.941,0,0,0,1.6-1.575,5.227,5.227,0,0,0,.54-2.52,5.017,5.017,0,0,0-.54-2.43,4.016,4.016,0,0,0-1.552-1.575,7.346,7.346,0,0,0-2.408-.832A17.559,17.559,0,0,0,68.49-26.6Zm18.27-4.59h5.67V0H86.76ZM105.93-4.23a7.559,7.559,0,0,0,4.455-1.035A3.428,3.428,0,0,0,111.78-8.19a3.775,3.775,0,0,0-.472-1.935,4.941,4.941,0,0,0-1.35-1.463A11.3,11.3,0,0,0,107.82-12.8q-1.26-.562-2.88-1.1-1.62-.585-3.128-1.282a10.539,10.539,0,0,1-2.655-1.733A7.979,7.979,0,0,1,97.313-19.4a7.887,7.887,0,0,1-.7-3.465A8.129,8.129,0,0,1,99.54-29.5a12.164,12.164,0,0,1,7.965-2.407,18.865,18.865,0,0,1,5.2.653,15.921,15.921,0,0,1,3.578,1.417l-1.755,4.59a13.44,13.44,0,0,0-3.353-1.3,15.617,15.617,0,0,0-3.757-.45,5.931,5.931,0,0,0-3.577.945,3.107,3.107,0,0,0-1.283,2.655,3.5,3.5,0,0,0,.428,1.778A4.4,4.4,0,0,0,104.2-20.3a10.681,10.681,0,0,0,1.845,1.08q1.058.5,2.317.945,2.205.81,3.938,1.642a11.123,11.123,0,0,1,2.925,1.98,7.745,7.745,0,0,1,1.823,2.7,10,10,0,0,1,.63,3.757,7.8,7.8,0,0,1-2.993,6.548Q111.69.675,105.93.675A23.167,23.167,0,0,1,102.4.428,22.617,22.617,0,0,1,99.563-.18a19.32,19.32,0,0,1-2.137-.743,13.158,13.158,0,0,1-1.44-.7L97.65-6.255a19.207,19.207,0,0,0,3.285,1.35A16.222,16.222,0,0,0,105.93-4.23ZM135,.675a17.342,17.342,0,0,1-6.3-1.08,12.458,12.458,0,0,1-4.725-3.173A14.2,14.2,0,0,1,121-8.685a21.311,21.311,0,0,1-1.035-6.93,18.742,18.742,0,0,1,1.192-6.93,15,15,0,0,1,3.262-5.108,13.722,13.722,0,0,1,4.86-3.173,16.434,16.434,0,0,1,5.985-1.08,19.3,19.3,0,0,1,3.51.293,24.89,24.89,0,0,1,2.745.653,11.288,11.288,0,0,1,1.935.765q.765.4,1.08.585l-1.665,4.635a13.224,13.224,0,0,0-3.083-1.283,14.9,14.9,0,0,0-4.342-.607,10.141,10.141,0,0,0-3.78.7,8.18,8.18,0,0,0-3.038,2.093,9.747,9.747,0,0,0-2,3.51,15.217,15.217,0,0,0-.72,4.9,17.3,17.3,0,0,0,.563,4.545,10.065,10.065,0,0,0,1.732,3.578,7.883,7.883,0,0,0,2.97,2.34,10.228,10.228,0,0,0,4.32.832,16.391,16.391,0,0,0,4.9-.608,19.485,19.485,0,0,0,2.925-1.148l1.53,4.635a7.8,7.8,0,0,1-1.462.72,21.056,21.056,0,0,1-2.182.7,21.712,21.712,0,0,1-2.835.54A26.511,26.511,0,0,1,135,.675Z" transform="translate(682 576)"/><path class="a" d="M1.35-10.4H2.37V0H1.35ZM11.64,0q-.289-.522-.726-1.231T9.943-2.736q-.534-.8-1.115-1.646T7.671-6.036q-.576-.8-1.127-1.506T5.565-8.756V0H4.56V-10.4h.81q.766.854,1.641,1.974T8.726-6.139q.841,1.162,1.569,2.271t1.2,1.933V-10.4h1V0Zm9.645-10.4v.885h-3.33V0h-1.02V-9.51h-3.33V-10.4ZM22.4,0V-10.4h6v.885h-4.98v3.615h4.44v.87h-4.44v4.14h5.37V0ZM37.14-7.275a2.636,2.636,0,0,1-.615,1.845,3.482,3.482,0,0,1-1.62.975q.24.3.622.81t.788,1.118q.405.608.795,1.268A12.885,12.885,0,0,1,37.77,0H36.675q-.315-.6-.683-1.2t-.75-1.163q-.383-.562-.743-1.043l-.63-.84q-.48.045-.96.045H31.23V0H30.21V-10.2a7.3,7.3,0,0,1,1.267-.218q.728-.068,1.342-.068a5.377,5.377,0,0,1,3.233.81A2.8,2.8,0,0,1,37.14-7.275ZM32.94-9.6q-.57,0-1,.037t-.712.068V-5.07h1.41a12.547,12.547,0,0,0,1.335-.067,3.2,3.2,0,0,0,1.095-.3,1.789,1.789,0,0,0,.735-.668,2.236,2.236,0,0,0,.27-1.185,2.186,2.186,0,0,0-.27-1.14,2.047,2.047,0,0,0-.7-.713,2.855,2.855,0,0,0-1-.36A6.8,6.8,0,0,0,32.94-9.6ZM45.78,0q-.21-.615-.436-1.215t-.436-1.23H40.517q-.21.63-.429,1.237T39.66,0H37.695q.585-1.665,1.109-3.075t1.027-2.67q.5-1.26,1-2.4t1.019-2.25h1.8q.525,1.11,1.02,2.25t1,2.4q.5,1.26,1.035,2.67T47.82,0ZM42.712-8.385q-.345.795-.787,1.935T41-3.975h3.42q-.48-1.335-.93-2.49T42.712-8.385ZM55.005-10.4V-8.76h-3.2V0H49.9V-8.76H46.71V-10.4Zm.93,0h1.89V0h-1.89ZM62.777,0q-1.126-2.43-2.169-5.085T58.664-10.4H60.75l.737,2.145q.376,1.1.752,2.152t.752,2.048q.376.99.737,1.815.346-.825.722-1.808t.759-2.047q.383-1.065.759-2.16T66.69-10.4h2.026Q67.8-7.74,66.759-5.085T64.591,0ZM69.54-10.4h1.89V0H69.54ZM75.3-1.56q.165.015.435.022t.735.008A3.791,3.791,0,0,0,79.313-2.5,3.729,3.729,0,0,0,80.25-5.2a3.747,3.747,0,0,0-.915-2.715A3.788,3.788,0,0,0,76.5-8.865a11.007,11.007,0,0,0-1.2.045ZM82.23-5.2a6.02,6.02,0,0,1-.42,2.347,4.439,4.439,0,0,1-1.192,1.665,4.958,4.958,0,0,1-1.86.99A8.448,8.448,0,0,1,76.35.12q-.63,0-1.425-.053A9.611,9.611,0,0,1,73.41-.15v-10.1a9.106,9.106,0,0,1,1.53-.21q.81-.045,1.44-.045a8.693,8.693,0,0,1,2.385.307,4.913,4.913,0,0,1,1.853.96,4.308,4.308,0,0,1,1.192,1.65A6.106,6.106,0,0,1,82.23-5.2ZM90.45,0q-.21-.615-.436-1.215t-.436-1.23H85.187q-.21.63-.429,1.237T84.33,0H82.365q.585-1.665,1.109-3.075T84.5-5.745q.5-1.26,1-2.4t1.019-2.25h1.8q.525,1.11,1.02,2.25t1,2.4q.5,1.26,1.035,2.67T92.49,0ZM87.382-8.385q-.345.795-.787,1.935t-.923,2.475h3.42q-.48-1.335-.93-2.49T87.382-8.385ZM95.175-1.56q.165.015.435.022t.735.008A3.791,3.791,0,0,0,99.188-2.5a3.729,3.729,0,0,0,.938-2.707A3.747,3.747,0,0,0,99.21-7.92a3.788,3.788,0,0,0-2.835-.945,11.007,11.007,0,0,0-1.2.045Zm6.93-3.645a6.02,6.02,0,0,1-.42,2.347,4.439,4.439,0,0,1-1.192,1.665,4.958,4.958,0,0,1-1.86.99A8.448,8.448,0,0,1,96.225.12Q95.6.12,94.8.068A9.611,9.611,0,0,1,93.285-.15v-10.1a9.106,9.106,0,0,1,1.53-.21q.81-.045,1.44-.045a8.693,8.693,0,0,1,2.385.307,4.913,4.913,0,0,1,1.853.96,4.308,4.308,0,0,1,1.192,1.65A6.106,6.106,0,0,1,102.105-5.2Zm1.56,5.2V-10.4h6.675V-8.79h-4.785v2.565h4.26V-4.65h-4.26v3.045H110.7V0Z" transform="translate(750 593)"/><path class="a" d="M653.833,535.168A16.5,16.5,0,1,1,665.5,540,16.393,16.393,0,0,1,653.833,535.168ZM654,523.5A11.5,11.5,0,1,0,665.5,512,11.513,11.513,0,0,0,654,523.5Zm8-5.5,10,6-10,6Z" transform="translate(179 37)"/><text class="b" transform="translate(553 576)"><tspan x="0" y="0">RADIO</tspan></text></g></svg>