<svg xmlns="http://www.w3.org/2000/svg" width="50" height="50" viewBox="0 0 50 50"><defs><style>.a{fill:#2d9195;}</style></defs><path class="a" d="M25,0A25,25,0,1,0,50,25,25,25,0,0,0,25,0Zm.53,39.556h-.006a14.957,14.957,0,0,1-7.151-1.821l-7.932,2.08,2.123-7.751A14.964,14.964,0,1,1,25.53,39.556Zm0,0"/><path class="a" d="M146.535,124.469a12.407,12.407,0,0,0-10.559,19.014l.3.469-1.259,4.58,4.715-1.232.455.269a12.473,12.473,0,0,0,6.341,1.73h0a12.453,12.453,0,0,0,12.459-12.41,12.437,12.437,0,0,0-12.453-12.419Zm7.328,17.745a3.859,3.859,0,0,1-2.528,1.774,5.158,5.158,0,0,1-2.359-.148,21.675,21.675,0,0,1-2.135-.786,16.671,16.671,0,0,1-6.4-5.633,7.243,7.243,0,0,1-1.529-3.86,4.177,4.177,0,0,1,1.311-3.112,1.379,1.379,0,0,1,1-.467c.25,0,.5,0,.718.013s.539-.087.843.64c.312.747,1.061,2.583,1.155,2.77a.686.686,0,0,1,.031.654,10.635,10.635,0,0,1-.936,1.276c-.166.205-.383.388-.164.762a11.255,11.255,0,0,0,2.083,2.584,10.247,10.247,0,0,0,3.012,1.852c.374.187.593.155.811-.093s.936-1.089,1.186-1.463.5-.311.843-.187,2.185,1.027,2.559,1.214.624.28.718.436a3.1,3.1,0,0,1-.218,1.774Zm0,0" transform="translate(-121.001 -112.292)"/></svg>